# xmcd
#
# Track frame offsets: 
#        150
#        10163
#        26962
#        47587
#        65097
#        83407
#        105585
#        127485
#        137150
#        156580
#        173062
#        194062
#        215700
#
# Disc length: 3158 seconds
#
# Revision: 0
# Processed by: cddbd v1.5.2PL0 Copyright (c) Steve Scherf et al.
# Submitted via: ExactAudioCopy v0.95a5
#
DISCID=c50c540d
DTITLE=ASIAN2 - VERONICA
DYEAR=2008
DGENRE=JPop
TTITLE0=Doo wop
TTITLE1=VERONICA
TTITLE2=cruisin'
TTITLE3=Country Road
TTITLE4=Mr.Marduk
TTITLE5=secret
TTITLE6=konomama
TTITLE7=marmot(four)
TTITLE8=Lion and Venus
TTITLE9=Never Know
TTITLE10=happy
TTITLE11=AFRICA
TTITLE12=destiny
EXTD=
EXTT0=
EXTT1=
EXTT2=
EXTT3=
EXTT4=
EXTT5=
EXTT6=
EXTT7=
EXTT8=
EXTT9=
EXTT10=
EXTT11=
EXTT12=
PLAYORDER=
